<svg xmlns="http://www.w3.org/2000/svg" viewBox="0 0 900 650"><defs><linearGradient id="s" x2="0" y2="1"><stop stop-color="#dff1df"/><stop offset="1" stop-color="#b8d8aa"/></linearGradient></defs><rect width="900" height="650" fill="url(#s)"/><rect y="405" width="900" height="245" fill="#8fc477"/><path d="M0 420Q130 365 260 420T520 420T780 420T1040 420" fill="#78b267" opacity=".55"/><rect x="0" y="315" width="900" height="105" fill="#c99d69"/><path d="M0 315v105M90 315v105M180 315v105M270 315v105M360 315v105M450 315v105M540 315v105M630 315v105M720 315v105M810 315v105M900 315v105" stroke="#a97c4e" stroke-width="5"/><rect x="80" y="500" width="180" height="75" rx="10" fill="#a66f43"/><rect x="95" y="480" width="150" height="35" rx="8" fill="#704a2f"/><circle cx="125" cy="470" r="35" fill="#7ab267"/><circle cx="180" cy="462" r="40" fill="#88bd71"/><circle cx="225" cy="475" r="30" fill="#72aa60"/><path d="M690 650V470" stroke="#76583d" stroke-width="35"/><circle cx="690" cy="430" r="105" fill="#70aa63"/><circle cx="620" cy="450" r="65" fill="#79b46b"/><circle cx="760" cy="450" r="70" fill="#68a05b"/><path d="M340 650q110-180 220 0" fill="#d7c39d" opacity=".85"/></svg>